{"title":"Mary Kom (2014) 480p BRRip XviD AC3-N3kr4","uid":11429135,"size":1757286158,"categoryP":"video","categoryS":"hd___movies","magnet":"?xt=urn:btih:bb30271f82a66e1dfed760c4445bbdee8365a1c1&amp;dn=Mary+Kom+%282014%29+480p+BRRip+XviD+AC3-N3kr4&amp;tr=udp%3A%2F%2Ftracker.openbittorrent.com%3A80&amp;tr=udp%3A%2F%2Fopen.demonii.com%3A1337&amp;tr=udp%3A%2F%2Ftracker.coppersurfer.tk%3A6969&amp;tr=udp%3A%2F%2Fexodus.desync.com%3A6969","seeders":2,"leechers":0,"uploader":"Falcon.G13","files":1,"time":1415700198,"description":"Mary Kom (2014)\n122 min - Biography | Drama | Sport - 5 September 2014 (India)\n6.8 Your rating: -/10 Ratings: 6.8/10 from 3,912 users \nReviews: 52 user | 22 critic[/color]\n\n\nA chronicle of the life of Indian boxer Mary Kom,\nwho went through several hardships\nbefore audaciously accomplishing her ultimate dream.\n &lt;a href=&quot;\nhttp://i.imgur.com/KZmx5je.jpg&quot; rel=&quot;nofollow&quot; target=&quot;_NEW&quot;&gt;\nhttp://i.imgur.com/KZmx5je.jpg&lt;/a&gt; &lt;a href=&quot;\nhttp://i.imgur.com/spUQuH5.jpg&quot; rel=&quot;nofollow&quot; target=&quot;_NEW&quot;&gt;\nhttp://i.imgur.com/spUQuH5.jpg&lt;/a&gt; &lt;a href=&quot;\nhttp://i.imgur.com/7nZvkMF.jpg&quot; rel=&quot;nofollow&quot; target=&quot;_NEW&quot;&gt;\nhttp://i.imgur.com/7nZvkMF.jpg&lt;/a&gt; &lt;a href=&quot;\nhttp://i.imgur.com/MP8ucLx.jpg&quot; rel=&quot;nofollow&quot; target=&quot;_NEW&quot;&gt;\nhttp://i.imgur.com/MP8ucLx.jpg&lt;/a&gt; &lt;a href=&quot;\nhttp://i.imgur.com/Ump6gCJ.jpg&quot; rel=&quot;nofollow&quot; target=&quot;_NEW&quot;&gt;\nhttp://i.imgur.com/Ump6gCJ.jpg&lt;/a&gt;\n\nGeneral\nComplete name : Mary Kom (2014) 480p BRRip XviD AC3-N3kr4.avi\nFormat : AVI\nFormat/Info : Audio Video Interleave\nFormat profile : OpenDML\nFile size : 1.64 GiB\nDuration : 2h 1mn\nOverall bit rate : 1 934 Kbps\nWriting application : Lavf55.7.100\n\nVideo\nID : 0\nFormat : MPEG-4 Visual\nFormat profile : Advanced Simple@L1\nFormat settings, BVOP : No\nFormat settings, QPel : No\nFormat settings, GMC : No warppoints\nFormat settings, Matrix : Default (H.263)\nCodec ID : XVID\nCodec ID/Hint : XviD\nDuration : 2h 1mn\nBit rate : 1 731 Kbps\nWidth : 720 pixels\nHeight : 304 pixels\nDisplay aspect ratio : 2.35:1\nFrame rate : 24.000 fps\nColor space : YUV\nChroma subsampling : 4:2:0\nBit depth : 8 bits\nScan type : Progressive\nCompression mode : Lossy\nBits/(Pixel*Frame) : 0.330\nStream size : 1.46 GiB (89%)\nWriting library : Lavc55.12.100\n\nAudio\nID : 1\nFormat : AC-3\nFormat/Info : Audio Coding 3\nMode extension : CM (complete main)\nFormat settings, Endianness : Big\nCodec ID : 2000\nDuration : 2h 1mn\nBit rate mode : Constant\nBit rate : 192 Kbps\nChannel(s) : 2 channels\nChannel positions : Front: L R\nSampling rate : 48.0 KHz\nBit depth : 16 bits\nCompression mode : Lossy\nStream size : 166 MiB (10%)\nAlignment : Aligned on interleaves\nInterleave, duration : 32 ms (0.77 video frame)\nInterleave, preload duration : 32 ms","torrent":{"xt":"urn:btih:bb30271f82a66e1dfed760c4445bbdee8365a1c1","amp;dn":"Mary+Kom+%282014%29+480p+BRRip+XviD+AC3-N3kr4","amp;tr":["udp%3A%2F%2Ftracker.openbittorrent.com%3A80","udp%3A%2F%2Fopen.demonii.com%3A1337","udp%3A%2F%2Ftracker.coppersurfer.tk%3A6969","udp%3A%2F%2Fexodus.desync.com%3A6969"],"infoHash":"bb30271f82a66e1dfed760c4445bbdee8365a1c1","infoHashBuffer":{"type":"Buffer","data":[187,48,39,31,130,166,110,29,254,215,96,196,68,91,189,238,131,101,161,193]},"announce":[],"urlList":[]}}